<?xml version="1.0" encoding="UTF-8" standalone="no"?>
<svg
   xmlns:dc="http://purl.org/dc/elements/1.1/"
   xmlns:cc="http://creativecommons.org/ns#"
   xmlns:rdf="http://www.w3.org/1999/02/22-rdf-syntax-ns#"
   xmlns:svg="http://www.w3.org/2000/svg"
   xmlns="http://www.w3.org/2000/svg"
   xmlns:sodipodi="http://sodipodi.sourceforge.net/DTD/sodipodi-0.dtd"
   xmlns:inkscape="http://www.inkscape.org/namespaces/inkscape"
   fill="#e5e5e5"
   viewBox="0 0 48 48"
   version="1.1"
   id="svg11465"
   sodipodi:docname="mpnotd.svg"
   inkscape:version="0.92.4 5da689c313, 2019-01-14">
  <metadata
     id="metadata11471">
    <rdf:RDF>
      <cc:Work
         rdf:about="">
        <dc:format>image/svg+xml</dc:format>
        <dc:type
           rdf:resource="http://purl.org/dc/dcmitype/StillImage" />
        <dc:title></dc:title>
      </cc:Work>
    </rdf:RDF>
  </metadata>
  <defs
     id="defs11469" />
  <sodipodi:namedview
     pagecolor="#ffffff"
     bordercolor="#666666"
     borderopacity="1"
     objecttolerance="10"
     gridtolerance="10"
     guidetolerance="10"
     inkscape:pageopacity="0"
     inkscape:pageshadow="2"
     inkscape:window-width="1342"
     inkscape:window-height="718"
     id="namedview11467"
     showgrid="false"
     inkscape:zoom="11"
     inkscape:cx="24"
     inkscape:cy="24"
     inkscape:window-x="10"
     inkscape:window-y="10"
     inkscape:window-maximized="0"
     inkscape:current-layer="svg11465" />
  <path
     d="m 8,4 h 32 c 2.21,0 4,1.79 4,4 V 44 L 36,36 H 8 C 5.79,36 4,34.21 4,32 V 8 C 4,5.79 5.79,4 8,4 Z"
     id="path11463"
     inkscape:connector-curvature="0" />
  <g
     style="fill:#212121"
     id="g11988"
     transform="matrix(0.75,0,0,0.75,5.0909091,2.1363637)">
    <path
       id="path11977"
       d="M 24,6 V 24.55 C 23.06,24.22 22.06,24 21,24 c -4.97,0 -9,4.03 -9,9 0,4.97 4.03,9 9,9 4.63,0 8.4,-3.51 8.9,-8 H 30 V 12 h 8 V 6 Z"
       inkscape:connector-curvature="0" />
  </g>
</svg>
